<mxfile host="app.diagrams.net" agent="Mozilla/5.0 (Windows NT 10.0; Win64; x64) AppleWebKit/537.36 (KHTML, like Gecko) Chrome/134.0.0.0 Safari/537.36" version="26.2.3">
  <diagram name="Page-1" id="0rLCD4LqPRxdOTXG5Csb">
    <mxGraphModel dx="1428" dy="785" grid="1" gridSize="10" guides="1" tooltips="1" connect="1" arrows="1" fold="1" page="1" pageScale="1" pageWidth="850" pageHeight="1100" math="0" shadow="0">
      <root>
        <mxCell id="0" />
        <mxCell id="1" parent="0" />
        <mxCell id="IQ1qnnaZ-MuqkBmPIG6Y-1" value="TokenList.xlsx" style="sketch=0;outlineConnect=0;fontColor=#232F3E;gradientColor=none;fillColor=#7AA116;strokeColor=none;dashed=0;verticalLabelPosition=bottom;verticalAlign=top;align=center;html=1;fontSize=12;fontStyle=0;aspect=fixed;pointerEvents=1;shape=mxgraph.aws4.file_system;" vertex="1" parent="1">
          <mxGeometry x="53.629999999999995" y="50" width="42.74" height="40" as="geometry" />
        </mxCell>
        <mxCell id="IQ1qnnaZ-MuqkBmPIG6Y-25" value="Name" style="text;html=1;align=center;verticalAlign=middle;resizable=0;points=[];autosize=1;strokeColor=none;fillColor=none;" vertex="1" parent="1">
          <mxGeometry x="45" y="120" width="60" height="30" as="geometry" />
        </mxCell>
        <mxCell id="IQ1qnnaZ-MuqkBmPIG6Y-26" value="Ticker" style="text;html=1;align=center;verticalAlign=middle;resizable=0;points=[];autosize=1;strokeColor=none;fillColor=none;" vertex="1" parent="1">
          <mxGeometry x="45" y="150" width="60" height="30" as="geometry" />
        </mxCell>
        <mxCell id="IQ1qnnaZ-MuqkBmPIG6Y-27" value="Address" style="text;html=1;align=center;verticalAlign=middle;resizable=0;points=[];autosize=1;strokeColor=none;fillColor=none;" vertex="1" parent="1">
          <mxGeometry x="40" y="180" width="70" height="30" as="geometry" />
        </mxCell>
        <mxCell id="IQ1qnnaZ-MuqkBmPIG6Y-28" value="" style="image;aspect=fixed;perimeter=ellipsePerimeter;html=1;align=center;shadow=0;dashed=0;fontColor=#4277BB;labelBackgroundColor=default;fontSize=12;spacingTop=3;image=img/lib/ibm/blockchain/blockchain.svg;" vertex="1" parent="1">
          <mxGeometry x="140" y="40" width="60" height="60" as="geometry" />
        </mxCell>
        <mxCell id="IQ1qnnaZ-MuqkBmPIG6Y-29" value="Transactions" style="outlineConnect=0;dashed=0;verticalLabelPosition=bottom;verticalAlign=top;align=center;html=1;shape=mxgraph.aws3.elastic_transcoder;fillColor=#D9A741;gradientColor=none;" vertex="1" parent="1">
          <mxGeometry x="230" y="23.5" width="76.5" height="93" as="geometry" />
        </mxCell>
        <mxCell id="IQ1qnnaZ-MuqkBmPIG6Y-31" value="TimeStamp" style="text;html=1;align=center;verticalAlign=middle;resizable=0;points=[];autosize=1;strokeColor=none;fillColor=none;" vertex="1" parent="1">
          <mxGeometry x="345" y="120" width="80" height="30" as="geometry" />
        </mxCell>
        <mxCell id="IQ1qnnaZ-MuqkBmPIG6Y-32" value="Balance" style="text;html=1;align=center;verticalAlign=middle;resizable=0;points=[];autosize=1;strokeColor=none;fillColor=none;" vertex="1" parent="1">
          <mxGeometry x="350" y="150" width="70" height="30" as="geometry" />
        </mxCell>
        <mxCell id="IQ1qnnaZ-MuqkBmPIG6Y-33" value="Address" style="text;html=1;align=center;verticalAlign=middle;resizable=0;points=[];autosize=1;strokeColor=none;fillColor=none;" vertex="1" parent="1">
          <mxGeometry x="350" y="180" width="70" height="30" as="geometry" />
        </mxCell>
      </root>
    </mxGraphModel>
  </diagram>
</mxfile>
